<svg width="22" height="22" viewBox="0 0 22 22" fill="none" xmlns="http://www.w3.org/2000/svg">
<path fill-rule="evenodd" clip-rule="evenodd" d="M9.325 6.82399C9.45232 6.88521 9.55975 6.98113 9.63494 7.10073C9.71013 7.22032 9.75002 7.35872 9.75 7.49999V14.5C9.75 14.6989 9.67098 14.8897 9.53033 15.0303C9.38968 15.171 9.19892 15.25 9 15.25C8.80109 15.25 8.61033 15.171 8.46967 15.0303C8.32902 14.8897 8.25 14.6989 8.25 14.5V9.05999L6.969 10.086C6.89205 10.1475 6.80373 10.1933 6.70909 10.2207C6.61445 10.2481 6.51534 10.2565 6.41742 10.2456C6.3195 10.2347 6.22469 10.2046 6.1384 10.1571C6.05211 10.1095 5.97603 10.0454 5.9145 9.96849C5.85298 9.89154 5.80721 9.80322 5.77982 9.70858C5.75243 9.61393 5.74395 9.51483 5.75486 9.41691C5.77689 9.21915 5.87659 9.03824 6.032 8.91399L8.532 6.91399C8.64231 6.82587 8.77525 6.77068 8.91554 6.75475C9.05582 6.73883 9.19775 6.76283 9.325 6.82399ZM13.25 8.24999C12.9848 8.24999 12.7304 8.35535 12.5429 8.54288C12.3554 8.73042 12.25 8.98477 12.25 9.24999V12.75C12.25 13.0152 12.3554 13.2696 12.5429 13.4571C12.7304 13.6446 12.9848 13.75 13.25 13.75C13.5152 13.75 13.7696 13.6446 13.9571 13.4571C14.1446 13.2696 14.25 13.0152 14.25 12.75V9.24999C14.25 8.98477 14.1446 8.73042 13.9571 8.54288C13.7696 8.35535 13.5152 8.24999 13.25 8.24999ZM10.75 9.24999C10.75 8.58695 11.0134 7.95106 11.4822 7.48222C11.9511 7.01338 12.587 6.74999 13.25 6.74999C13.913 6.74999 14.5489 7.01338 15.0178 7.48222C15.4866 7.95106 15.75 8.58695 15.75 9.24999V12.75C15.75 13.413 15.4866 14.0489 15.0178 14.5178C14.5489 14.9866 13.913 15.25 13.25 15.25C12.587 15.25 11.9511 14.9866 11.4822 14.5178C11.0134 14.0489 10.75 13.413 10.75 12.75V9.24999Z" fill="#4B4B4B"/>
<path fill-rule="evenodd" clip-rule="evenodd" d="M11.676 0.675C11.6148 0.547685 11.5189 0.440248 11.3993 0.365059C11.2797 0.28987 11.1413 0.249986 11 0.25C10.265 0.25 9.546 0.324 8.85 0.465C3.944 1.461 0.25 5.798 0.25 11C0.25 16.937 5.063 21.75 11 21.75C16.937 21.75 21.75 16.937 21.75 11C21.75 6.59 19.095 2.803 15.3 1.145C15.1191 1.07252 14.917 1.07333 14.7366 1.14727C14.5563 1.2212 14.4118 1.36245 14.3338 1.54108C14.2558 1.71971 14.2504 1.9217 14.3187 2.10424C14.3871 2.28678 14.5238 2.43554 14.7 2.519C16.2283 3.18602 17.5479 4.25378 18.5192 5.60929C19.4904 6.96481 20.0771 8.55766 20.2173 10.2193C20.3574 11.8809 20.0458 13.5496 19.3153 15.0486C18.5849 16.5477 17.4628 17.8214 16.0678 18.735C14.6728 19.6486 13.0567 20.1681 11.3907 20.2385C9.72463 20.3089 8.07052 19.9277 6.60338 19.1351C5.13625 18.3425 3.91066 17.168 3.0563 15.736C2.20194 14.3039 1.75058 12.6675 1.75 11C1.75031 9.02696 2.38115 7.10565 3.55048 5.51645C4.7198 3.92725 6.3664 2.75333 8.25 2.166V3.5C8.24981 3.65554 8.29798 3.80729 8.38785 3.93424C8.47771 4.06119 8.60482 4.15706 8.75158 4.20858C8.89833 4.2601 9.05748 4.26471 9.20697 4.22179C9.35647 4.17887 9.48893 4.09053 9.586 3.969L11.586 1.469C11.6743 1.35859 11.7296 1.22547 11.7455 1.08498C11.7615 0.944499 11.7374 0.802374 11.676 0.675Z" fill="#4B4B4B"/>
</svg>
